<svg xmlns="http://www.w3.org/2000/svg" version="1.1" xmlns:xlink="http://www.w3.org/1999/xlink" xmlns:svgjs="http://svgjs.dev/svgjs" width="2000" height="720" preserveAspectRatio="none" viewBox="0 0 2000 720"><g mask="url(&quot;#SvgjsMask3662&quot;)" fill="none"><path d="M65.78 552.4a5.6 5.6 0 1 0-10.3-4.41 5.6 5.6 0 1 0 10.3 4.41zM51.07 546.1a5.6 5.6 0 1 0-10.29-4.42 5.6 5.6 0 1 0 10.29 4.42zM36.37 539.79a5.6 5.6 0 1 0-10.3-4.41 5.6 5.6 0 1 0 10.3 4.41zM21.66 533.48a5.6 5.6 0 1 0-10.29-4.41 5.6 5.6 0 1 0 10.29 4.41zM101.49 550.31a5.6 5.6 0 1 0-10.29-4.42 5.6 5.6 0 1 0 10.29 4.42zM86.79 544a5.6 5.6 0 1 0-10.3-4.41 5.6 5.6 0 1 0 10.3 4.41zM72.08 537.7a5.6 5.6 0 1 0-10.29-4.42 5.6 5.6 0 1 0 10.29 4.42zM57.38 531.39a5.6 5.6 0 1 0-10.3-4.41 5.6 5.6 0 1 0 10.3 4.41z" fill="rgba(233, 46, 83, 0.7)"></path><rect width="324" height="324" clip-path="url(&quot;#SvgjsClipPath3663&quot;)" x="626.23" y="39.72" fill="url(&quot;#SvgjsPattern3664&quot;)" transform="rotate(207.83, 788.23, 201.72)"></rect><path d="M885.9499999999999 589.27 L850.9499999999999 435.11999999999995L805.6304924228682 575.0145075771317z" fill="rgba(233, 46, 83, 0.7)"></path><rect width="135.6" height="135.6" clip-path="url(&quot;#SvgjsClipPath3665&quot;)" x="1627.88" y="608.76" fill="url(&quot;#SvgjsPattern3666&quot;)" transform="rotate(215.95, 1695.68, 676.56)"></rect><path d="M1864.83 69.01a5.6 5.6 0 1 0-6.52-9.11 5.6 5.6 0 1 0 6.52 9.11zM1855.52 55.99a5.6 5.6 0 1 0-6.51-9.11 5.6 5.6 0 1 0 6.51 9.11zM1846.22 42.98a5.6 5.6 0 1 0-6.51-9.12 5.6 5.6 0 1 0 6.51 9.12zM1836.92 29.96a5.6 5.6 0 1 0-6.51-9.11 5.6 5.6 0 1 0 6.51 9.11zM1896.45 85.74a5.6 5.6 0 1 0-6.51-9.11 5.6 5.6 0 1 0 6.51 9.11zM1887.15 72.73a5.6 5.6 0 1 0-6.52-9.12 5.6 5.6 0 1 0 6.52 9.12zM1877.84 59.71a5.6 5.6 0 1 0-6.51-9.11 5.6 5.6 0 1 0 6.51 9.11zM1868.54 46.69a5.6 5.6 0 1 0-6.51-9.11 5.6 5.6 0 1 0 6.51 9.11zM1928.07 102.48a5.6 5.6 0 1 0-6.51-9.11 5.6 5.6 0 1 0 6.51 9.11zM1918.77 89.46a5.6 5.6 0 1 0-6.51-9.11 5.6 5.6 0 1 0 6.51 9.11zM1909.47 76.44a5.6 5.6 0 1 0-6.52-9.11 5.6 5.6 0 1 0 6.52 9.11zM1900.16 63.42a5.6 5.6 0 1 0-6.51-9.11 5.6 5.6 0 1 0 6.51 9.11z" stroke="rgba(233, 46, 83, 0.7)" stroke-width="2.66"></path><rect width="384" height="384" clip-path="url(&quot;#SvgjsClipPath3667&quot;)" x="123.09" y="260.84" fill="url(&quot;#SvgjsPattern3668&quot;)" transform="rotate(285.38, 315.09, 452.84)"></rect><rect width="329.76" height="329.76" clip-path="url(&quot;#SvgjsClipPath3669&quot;)" x="1701.97" y="-23.18" fill="url(&quot;#SvgjsPattern3670&quot;)" transform="rotate(152.23, 1866.85, 141.7)"></rect><circle r="60" cx="1456.27" cy="146.15" fill="rgba(85, 85, 85, 0.28)"></circle><path d="M1557.43 207.68a5.6 5.6 0 1 0 10.19-4.67 5.6 5.6 0 1 0-10.19 4.67zM1571.98 201.01a5.6 5.6 0 1 0 10.18-4.66 5.6 5.6 0 1 0-10.18 4.66zM1586.53 194.35a5.6 5.6 0 1 0 10.18-4.66 5.6 5.6 0 1 0-10.18 4.66zM1601.07 187.69a5.6 5.6 0 1 0 10.19-4.67 5.6 5.6 0 1 0-10.19 4.67zM1535 235.55a5.6 5.6 0 1 0 10.19-4.67 5.6 5.6 0 1 0-10.19 4.67zM1549.55 228.89a5.6 5.6 0 1 0 10.18-4.67 5.6 5.6 0 1 0-10.18 4.67zM1564.1 222.22a5.6 5.6 0 1 0 10.18-4.66 5.6 5.6 0 1 0-10.18 4.66zM1578.64 215.56a5.6 5.6 0 1 0 10.19-4.66 5.6 5.6 0 1 0-10.19 4.66z" stroke="rgba(6, 143, 255, 0.3)" stroke-width="1" stroke-dasharray="3, 3"></path><rect width="456" height="456" clip-path="url(&quot;#SvgjsClipPath3671&quot;)" x="594.67" y="302.67" fill="url(&quot;#SvgjsPattern3672&quot;)" transform="rotate(144.76, 822.67, 530.67)"></rect><path d="M1226.2199999999998 225.01 L1309.3899999999999 176.5L1206.917358837468 139.86735883746834z" stroke="rgba(85, 85, 85, 0.28)" stroke-width="1.26"></path><rect width="96" height="96" clip-path="url(&quot;#SvgjsClipPath3673&quot;)" x="1322.86" y="404.38" fill="url(&quot;#SvgjsPattern3674&quot;)" transform="rotate(136.19, 1370.86, 452.38)"></rect><rect width="97.6" height="97.6" clip-path="url(&quot;#SvgjsClipPath3675&quot;)" x="613.58" y="349.42" fill="url(&quot;#SvgjsPattern3676&quot;)" transform="rotate(234.61, 662.38, 398.22)"></rect></g><defs><mask id="SvgjsMask3662"><rect width="2000" height="720" fill="#ffffff"></rect></mask><pattern x="0" y="0" width="6" height="6" patternUnits="userSpaceOnUse" id="SvgjsPattern3664"><path d="M3 1L3 5M1 3L5 3" stroke="rgba(233, 46, 83, 0.7)" fill="none" stroke-width="1"></path></pattern><clipPath id="SvgjsClipPath3663"><circle r="81" cx="788.23" cy="201.72"></circle></clipPath><pattern x="0" y="0" width="13.56" height="13.56" patternUnits="userSpaceOnUse" id="SvgjsPattern3666"><path d="M6.78 1L6.78 12.56M1 6.78L12.56 6.78" stroke="rgba(6, 143, 255, 0.3)" fill="none" stroke-width="3.49"></path></pattern><clipPath id="SvgjsClipPath3665"><circle r="33.9" cx="1695.68" cy="676.56"></circle></clipPath><pattern x="0" y="0" width="12.8" height="12.8" patternUnits="userSpaceOnUse" id="SvgjsPattern3668"><path d="M0 12.8L6.4 0L12.8 12.8" stroke="rgba(6, 143, 255, 0.3)" fill="none"></path></pattern><clipPath id="SvgjsClipPath3667"><circle r="96" cx="315.09" cy="452.84"></circle></clipPath><pattern x="0" y="0" width="13.74" height="13.74" patternUnits="userSpaceOnUse" id="SvgjsPattern3670"><path d="M6.87 1L6.87 12.74M1 6.87L12.74 6.87" stroke="rgba(233, 46, 83, 0.7)" fill="none" stroke-width="4.51"></path></pattern><clipPath id="SvgjsClipPath3669"><circle r="82.44" cx="1866.85" cy="141.7"></circle></clipPath><pattern x="0" y="0" width="6" height="6" patternUnits="userSpaceOnUse" id="SvgjsPattern3672"><path d="M3 1L3 5M1 3L5 3" stroke="rgba(6, 143, 255, 0.3)" fill="none" stroke-width="1"></path></pattern><clipPath id="SvgjsClipPath3671"><circle r="114" cx="822.67" cy="530.67"></circle></clipPath><pattern x="0" y="0" width="6" height="6" patternUnits="userSpaceOnUse" id="SvgjsPattern3674"><path d="M0 6L3 0L6 6" stroke="rgba(85, 85, 85, 0.28)" fill="none"></path></pattern><clipPath id="SvgjsClipPath3673"><circle r="24" cx="1370.86" cy="452.38"></circle></clipPath><pattern x="0" y="0" width="97.6" height="9.76" patternUnits="userSpaceOnUse" id="SvgjsPattern3676"><rect width="97.6" height="4.88" x="0" y="0" fill="rgba(233, 46, 83, 0.7)"></rect><rect width="97.6" height="4.88" x="0" y="4.88" fill="rgba(0, 0, 0, 0)"></rect></pattern><clipPath id="SvgjsClipPath3675"><circle r="24.4" cx="662.38" cy="398.22"></circle></clipPath></defs></svg>