<svg xmlns="http://www.w3.org/2000/svg" version="1.1" xmlns:xlink="http://www.w3.org/1999/xlink" xmlns:svgjs="http://svgjs.dev/svgjs" width="2160" height="1024" preserveAspectRatio="none" viewBox="0 0 2160 1024"><g mask="url(&quot;#SvgjsMask1946&quot;)" fill="none"><use xlink:href="#SvgjsG1950" transform="translate(0, 0)" fill="rgba(85, 85, 85, 1)"></use><use xlink:href="#SvgjsG1950" transform="translate(0, 811.9999999999999)" fill="rgba(85, 85, 85, 1)"></use><use xlink:href="#SvgjsG1950" transform="translate(811.9999999999999, 0)" fill="rgba(85, 85, 85, 1)"></use><use xlink:href="#SvgjsG1950" transform="translate(811.9999999999999, 811.9999999999999)" fill="rgba(85, 85, 85, 1)"></use><use xlink:href="#SvgjsG1950" transform="translate(1623.9999999999998, 0)" fill="rgba(85, 85, 85, 1)"></use><use xlink:href="#SvgjsG1950" transform="translate(1623.9999999999998, 811.9999999999999)" fill="rgba(85, 85, 85, 1)"></use></g><defs><mask id="SvgjsMask1946"><rect width="2160" height="1024" fill="#ffffff"></rect></mask><g id="SvgjsG1948"><path d="M-0.65 11.54L8.2 6.96 14.7 14.53z m1.69-8.7L4.94 7.41l-5.33 2.76zM14.98 13.16l-3.9-4.56L16.41 5.83z"></path><path d="M5.91 6.92L8.45 5.61 10.32 7.78 16.64 4.52l-15.37-2.99z"></path></g><g id="SvgjsG1947"><path d="M5.35 2.36L13.32 3.91 11.29 14.31l-7.96-1.55 2.02-10.4z m4.28-0.74a0.46 0.46 0 1 1-0.18 0.9 0.46 0.46 0 0 1 0.18-0.9zM7.78 14.8l-1.37-0.27c-0.19-0.04-0.12-0.39 0.07-0.35l1.37 0.27c0.2 0.04 0.13 0.39-0.07 0.35zM3.12 14.78L10.73 16.26C11.05 16.33 11.39 16.03 11.47 15.61L13.97 2.77c0.08-0.42-0.11-0.82-0.45-0.88l-7.6-1.48c-0.33-0.06-0.66 0.23-0.75 0.65L2.68 13.9c-0.08 0.42 0.12 0.82 0.44 0.88z" fill-rule="evenodd"></path></g><g id="SvgjsG1949"><path d="M1.35 1.48l0 0s2.39 3.54 2.39 3.54a0.6 0.6 0 0 0 0.85 0.17L6.22 4.08c0.63-0.43 1.23 0.18 2.33 1.5 0.73 0.88 1.55 2.03 2.21 3.27 0.46 0.87 0.85 1.77 0.18 2.22 0 0-1.64 1.1-1.64 1.1l0 0c-0.29 0.2-0.34 0.58-0.16 0.85l0 0L11.6 16.67c0.19 0.28 0.57 0.35 0.84 0.16L14.09 15.72C14.79 15.12 16.71 11.99 12.38 5.4c-4.56-6.94-8.47-6.4-9.23-5.86 0 0-1.64 1.09-1.63 1.09l0 0c-0.29 0.2-0.34 0.58-0.17 0.85z"></path></g><g id="SvgjsG1950"><use xlink:href="#SvgjsG1947" transform="translate(0, 0) scale(2.8)" fill="rgba(85, 85, 85, 1)"></use><use xlink:href="#SvgjsG1948" transform="translate(0, 81.19999999999999) scale(2.8)" fill="rgba(85, 85, 85, 1)"></use><use xlink:href="#SvgjsG1948" transform="translate(0, 162.39999999999998) scale(2.8)" fill="rgba(85, 85, 85, 1)"></use><use xlink:href="#SvgjsG1949" transform="translate(0, 243.59999999999997) scale(2.8)" fill="rgba(85, 85, 85, 1)"></use><use xlink:href="#SvgjsG1948" transform="translate(0, 324.79999999999995) scale(2.8)" fill="rgba(85, 85, 85, 1)"></use><use xlink:href="#SvgjsG1947" transform="translate(0, 405.99999999999994) scale(2.8)" fill="rgba(85, 85, 85, 1)"></use><use xlink:href="#SvgjsG1948" transform="translate(0, 487.19999999999993) scale(2.8)" fill="rgba(85, 85, 85, 1)"></use><use xlink:href="#SvgjsG1948" transform="translate(0, 568.3999999999999) scale(2.8)" fill="rgba(85, 85, 85, 1)"></use><use xlink:href="#SvgjsG1948" transform="translate(0, 649.5999999999999) scale(2.8)" fill="rgba(85, 85, 85, 1)"></use><use xlink:href="#SvgjsG1947" transform="translate(0, 730.8) scale(2.8)" fill="rgba(85, 85, 85, 1)"></use><use xlink:href="#SvgjsG1949" transform="translate(81.19999999999999, 0) scale(2.8)" fill="rgba(85, 85, 85, 1)"></use><use xlink:href="#SvgjsG1949" transform="translate(81.19999999999999, 81.19999999999999) scale(2.8)" fill="rgba(85, 85, 85, 1)"></use><use xlink:href="#SvgjsG1949" transform="translate(81.19999999999999, 162.39999999999998) scale(2.8)" fill="rgba(85, 85, 85, 1)"></use><use xlink:href="#SvgjsG1949" transform="translate(81.19999999999999, 243.59999999999997) scale(2.8)" fill="rgba(85, 85, 85, 1)"></use><use xlink:href="#SvgjsG1948" transform="translate(81.19999999999999, 324.79999999999995) scale(2.8)" fill="rgba(85, 85, 85, 1)"></use><use xlink:href="#SvgjsG1948" transform="translate(81.19999999999999, 405.99999999999994) scale(2.8)" fill="rgba(85, 85, 85, 1)"></use><use xlink:href="#SvgjsG1948" transform="translate(81.19999999999999, 487.19999999999993) scale(2.8)" fill="rgba(85, 85, 85, 1)"></use><use xlink:href="#SvgjsG1949" transform="translate(81.19999999999999, 568.3999999999999) scale(2.8)" fill="rgba(85, 85, 85, 1)"></use><use xlink:href="#SvgjsG1947" transform="translate(81.19999999999999, 649.5999999999999) scale(2.8)" fill="rgba(85, 85, 85, 1)"></use><use xlink:href="#SvgjsG1949" transform="translate(81.19999999999999, 730.8) scale(2.8)" fill="rgba(85, 85, 85, 1)"></use><use xlink:href="#SvgjsG1947" transform="translate(162.39999999999998, 0) scale(2.8)" fill="rgba(85, 85, 85, 1)"></use><use xlink:href="#SvgjsG1947" transform="translate(162.39999999999998, 81.19999999999999) scale(2.8)" fill="rgba(85, 85, 85, 1)"></use><use xlink:href="#SvgjsG1947" transform="translate(162.39999999999998, 162.39999999999998) scale(2.8)" fill="rgba(85, 85, 85, 1)"></use><use xlink:href="#SvgjsG1947" transform="translate(162.39999999999998, 243.59999999999997) scale(2.8)" fill="rgba(85, 85, 85, 1)"></use><use xlink:href="#SvgjsG1947" transform="translate(162.39999999999998, 324.79999999999995) scale(2.8)" fill="rgba(85, 85, 85, 1)"></use><use xlink:href="#SvgjsG1948" transform="translate(162.39999999999998, 405.99999999999994) scale(2.8)" fill="rgba(85, 85, 85, 1)"></use><use xlink:href="#SvgjsG1949" transform="translate(162.39999999999998, 487.19999999999993) scale(2.8)" fill="rgba(85, 85, 85, 1)"></use><use xlink:href="#SvgjsG1947" transform="translate(162.39999999999998, 568.3999999999999) scale(2.8)" fill="rgba(85, 85, 85, 1)"></use><use xlink:href="#SvgjsG1949" transform="translate(162.39999999999998, 649.5999999999999) scale(2.8)" fill="rgba(85, 85, 85, 1)"></use><use xlink:href="#SvgjsG1947" transform="translate(162.39999999999998, 730.8) scale(2.8)" fill="rgba(85, 85, 85, 1)"></use><use xlink:href="#SvgjsG1949" transform="translate(243.59999999999997, 0) scale(2.8)" fill="rgba(85, 85, 85, 1)"></use><use xlink:href="#SvgjsG1948" transform="translate(243.59999999999997, 81.19999999999999) scale(2.8)" fill="rgba(85, 85, 85, 1)"></use><use xlink:href="#SvgjsG1949" transform="translate(243.59999999999997, 162.39999999999998) scale(2.8)" fill="rgba(85, 85, 85, 1)"></use><use xlink:href="#SvgjsG1948" transform="translate(243.59999999999997, 243.59999999999997) scale(2.8)" fill="rgba(85, 85, 85, 1)"></use><use xlink:href="#SvgjsG1947" transform="translate(243.59999999999997, 324.79999999999995) scale(2.8)" fill="rgba(85, 85, 85, 1)"></use><use xlink:href="#SvgjsG1949" transform="translate(243.59999999999997, 405.99999999999994) scale(2.8)" fill="rgba(85, 85, 85, 1)"></use><use xlink:href="#SvgjsG1948" transform="translate(243.59999999999997, 487.19999999999993) scale(2.8)" fill="rgba(85, 85, 85, 1)"></use><use xlink:href="#SvgjsG1949" transform="translate(243.59999999999997, 568.3999999999999) scale(2.8)" fill="rgba(85, 85, 85, 1)"></use><use xlink:href="#SvgjsG1947" transform="translate(243.59999999999997, 649.5999999999999) scale(2.8)" fill="rgba(85, 85, 85, 1)"></use><use xlink:href="#SvgjsG1948" transform="translate(243.59999999999997, 730.8) scale(2.8)" fill="rgba(85, 85, 85, 1)"></use><use xlink:href="#SvgjsG1949" transform="translate(324.79999999999995, 0) scale(2.8)" fill="rgba(85, 85, 85, 1)"></use><use xlink:href="#SvgjsG1947" transform="translate(324.79999999999995, 81.19999999999999) scale(2.8)" fill="rgba(85, 85, 85, 1)"></use><use xlink:href="#SvgjsG1947" transform="translate(324.79999999999995, 162.39999999999998) scale(2.8)" fill="rgba(85, 85, 85, 1)"></use><use xlink:href="#SvgjsG1949" transform="translate(324.79999999999995, 243.59999999999997) scale(2.8)" fill="rgba(85, 85, 85, 1)"></use><use xlink:href="#SvgjsG1947" transform="translate(324.79999999999995, 324.79999999999995) scale(2.8)" fill="rgba(85, 85, 85, 1)"></use><use xlink:href="#SvgjsG1947" transform="translate(324.79999999999995, 405.99999999999994) scale(2.8)" fill="rgba(85, 85, 85, 1)"></use><use xlink:href="#SvgjsG1947" transform="translate(324.79999999999995, 487.19999999999993) scale(2.8)" fill="rgba(85, 85, 85, 1)"></use><use xlink:href="#SvgjsG1947" transform="translate(324.79999999999995, 568.3999999999999) scale(2.8)" fill="rgba(85, 85, 85, 1)"></use><use xlink:href="#SvgjsG1948" transform="translate(324.79999999999995, 649.5999999999999) scale(2.8)" fill="rgba(85, 85, 85, 1)"></use><use xlink:href="#SvgjsG1949" transform="translate(324.79999999999995, 730.8) scale(2.8)" fill="rgba(85, 85, 85, 1)"></use><use xlink:href="#SvgjsG1949" transform="translate(405.99999999999994, 0) scale(2.8)" fill="rgba(85, 85, 85, 1)"></use><use xlink:href="#SvgjsG1949" transform="translate(405.99999999999994, 81.19999999999999) scale(2.8)" fill="rgba(85, 85, 85, 1)"></use><use xlink:href="#SvgjsG1949" transform="translate(405.99999999999994, 162.39999999999998) scale(2.8)" fill="rgba(85, 85, 85, 1)"></use><use xlink:href="#SvgjsG1947" transform="translate(405.99999999999994, 243.59999999999997) scale(2.8)" fill="rgba(85, 85, 85, 1)"></use><use xlink:href="#SvgjsG1948" transform="translate(405.99999999999994, 324.79999999999995) scale(2.8)" fill="rgba(85, 85, 85, 1)"></use><use xlink:href="#SvgjsG1949" transform="translate(405.99999999999994, 405.99999999999994) scale(2.8)" fill="rgba(85, 85, 85, 1)"></use><use xlink:href="#SvgjsG1948" transform="translate(405.99999999999994, 487.19999999999993) scale(2.8)" fill="rgba(85, 85, 85, 1)"></use><use xlink:href="#SvgjsG1947" transform="translate(405.99999999999994, 568.3999999999999) scale(2.8)" fill="rgba(85, 85, 85, 1)"></use><use xlink:href="#SvgjsG1949" transform="translate(405.99999999999994, 649.5999999999999) scale(2.8)" fill="rgba(85, 85, 85, 1)"></use><use xlink:href="#SvgjsG1948" transform="translate(405.99999999999994, 730.8) scale(2.8)" fill="rgba(85, 85, 85, 1)"></use><use xlink:href="#SvgjsG1947" transform="translate(487.19999999999993, 0) scale(2.8)" fill="rgba(85, 85, 85, 1)"></use><use xlink:href="#SvgjsG1949" transform="translate(487.19999999999993, 81.19999999999999) scale(2.8)" fill="rgba(85, 85, 85, 1)"></use><use xlink:href="#SvgjsG1949" transform="translate(487.19999999999993, 162.39999999999998) scale(2.8)" fill="rgba(85, 85, 85, 1)"></use><use xlink:href="#SvgjsG1949" transform="translate(487.19999999999993, 243.59999999999997) scale(2.8)" fill="rgba(85, 85, 85, 1)"></use><use xlink:href="#SvgjsG1949" transform="translate(487.19999999999993, 324.79999999999995) scale(2.8)" fill="rgba(85, 85, 85, 1)"></use><use xlink:href="#SvgjsG1947" transform="translate(487.19999999999993, 405.99999999999994) scale(2.8)" fill="rgba(85, 85, 85, 1)"></use><use xlink:href="#SvgjsG1947" transform="translate(487.19999999999993, 487.19999999999993) scale(2.8)" fill="rgba(85, 85, 85, 1)"></use><use xlink:href="#SvgjsG1949" transform="translate(487.19999999999993, 568.3999999999999) scale(2.8)" fill="rgba(85, 85, 85, 1)"></use><use xlink:href="#SvgjsG1948" transform="translate(487.19999999999993, 649.5999999999999) scale(2.8)" fill="rgba(85, 85, 85, 1)"></use><use xlink:href="#SvgjsG1947" transform="translate(487.19999999999993, 730.8) scale(2.8)" fill="rgba(85, 85, 85, 1)"></use><use xlink:href="#SvgjsG1948" transform="translate(568.3999999999999, 0) scale(2.8)" fill="rgba(85, 85, 85, 1)"></use><use xlink:href="#SvgjsG1948" transform="translate(568.3999999999999, 81.19999999999999) scale(2.8)" fill="rgba(85, 85, 85, 1)"></use><use xlink:href="#SvgjsG1948" transform="translate(568.3999999999999, 162.39999999999998) scale(2.8)" fill="rgba(85, 85, 85, 1)"></use><use xlink:href="#SvgjsG1949" transform="translate(568.3999999999999, 243.59999999999997) scale(2.8)" fill="rgba(85, 85, 85, 1)"></use><use xlink:href="#SvgjsG1948" transform="translate(568.3999999999999, 324.79999999999995) scale(2.8)" fill="rgba(85, 85, 85, 1)"></use><use xlink:href="#SvgjsG1947" transform="translate(568.3999999999999, 405.99999999999994) scale(2.8)" fill="rgba(85, 85, 85, 1)"></use><use xlink:href="#SvgjsG1947" transform="translate(568.3999999999999, 487.19999999999993) scale(2.8)" fill="rgba(85, 85, 85, 1)"></use><use xlink:href="#SvgjsG1949" transform="translate(568.3999999999999, 568.3999999999999) scale(2.8)" fill="rgba(85, 85, 85, 1)"></use><use xlink:href="#SvgjsG1947" transform="translate(568.3999999999999, 649.5999999999999) scale(2.8)" fill="rgba(85, 85, 85, 1)"></use><use xlink:href="#SvgjsG1947" transform="translate(568.3999999999999, 730.8) scale(2.8)" fill="rgba(85, 85, 85, 1)"></use><use xlink:href="#SvgjsG1947" transform="translate(649.5999999999999, 0) scale(2.8)" fill="rgba(85, 85, 85, 1)"></use><use xlink:href="#SvgjsG1949" transform="translate(649.5999999999999, 81.19999999999999) scale(2.8)" fill="rgba(85, 85, 85, 1)"></use><use xlink:href="#SvgjsG1947" transform="translate(649.5999999999999, 162.39999999999998) scale(2.8)" fill="rgba(85, 85, 85, 1)"></use><use xlink:href="#SvgjsG1949" transform="translate(649.5999999999999, 243.59999999999997) scale(2.8)" fill="rgba(85, 85, 85, 1)"></use><use xlink:href="#SvgjsG1947" transform="translate(649.5999999999999, 324.79999999999995) scale(2.8)" fill="rgba(85, 85, 85, 1)"></use><use xlink:href="#SvgjsG1948" transform="translate(649.5999999999999, 405.99999999999994) scale(2.8)" fill="rgba(85, 85, 85, 1)"></use><use xlink:href="#SvgjsG1947" transform="translate(649.5999999999999, 487.19999999999993) scale(2.8)" fill="rgba(85, 85, 85, 1)"></use><use xlink:href="#SvgjsG1948" transform="translate(649.5999999999999, 568.3999999999999) scale(2.8)" fill="rgba(85, 85, 85, 1)"></use><use xlink:href="#SvgjsG1948" transform="translate(649.5999999999999, 649.5999999999999) scale(2.8)" fill="rgba(85, 85, 85, 1)"></use><use xlink:href="#SvgjsG1947" transform="translate(649.5999999999999, 730.8) scale(2.8)" fill="rgba(85, 85, 85, 1)"></use><use xlink:href="#SvgjsG1948" transform="translate(730.8, 0) scale(2.8)" fill="rgba(85, 85, 85, 1)"></use><use xlink:href="#SvgjsG1949" transform="translate(730.8, 81.19999999999999) scale(2.8)" fill="rgba(85, 85, 85, 1)"></use><use xlink:href="#SvgjsG1947" transform="translate(730.8, 162.39999999999998) scale(2.8)" fill="rgba(85, 85, 85, 1)"></use><use xlink:href="#SvgjsG1947" transform="translate(730.8, 243.59999999999997) scale(2.8)" fill="rgba(85, 85, 85, 1)"></use><use xlink:href="#SvgjsG1947" transform="translate(730.8, 324.79999999999995) scale(2.8)" fill="rgba(85, 85, 85, 1)"></use><use xlink:href="#SvgjsG1948" transform="translate(730.8, 405.99999999999994) scale(2.8)" fill="rgba(85, 85, 85, 1)"></use><use xlink:href="#SvgjsG1947" transform="translate(730.8, 487.19999999999993) scale(2.8)" fill="rgba(85, 85, 85, 1)"></use><use xlink:href="#SvgjsG1949" transform="translate(730.8, 568.3999999999999) scale(2.8)" fill="rgba(85, 85, 85, 1)"></use><use xlink:href="#SvgjsG1948" transform="translate(730.8, 649.5999999999999) scale(2.8)" fill="rgba(85, 85, 85, 1)"></use><use xlink:href="#SvgjsG1947" transform="translate(730.8, 730.8) scale(2.8)" fill="rgba(85, 85, 85, 1)"></use></g></defs></svg>