<svg xmlns="http://www.w3.org/2000/svg" version="1.1" xmlns:xlink="http://www.w3.org/1999/xlink" xmlns:svgjs="http://svgjs.dev/svgjs" width="1440" height="560" preserveAspectRatio="none" viewBox="0 0 1440 560"><g mask="url(&quot;#SvgjsMask1001&quot;)" fill="none"><path d="M515.83 652.66C660.58 640.88 760.49 349.34 1011 348.89 1261.51 348.44 1376.75 498.42 1506.17 500.09" stroke="rgba(85, 85, 85, 0.65)" stroke-width="2"></path><path d="M744.26 634.18C847.69 589.9 774.59 286.45 1003.88 266.55 1233.17 246.65 1389.7 144.19 1523.11 143.35" stroke="rgba(85, 85, 85, 0.65)" stroke-width="2"></path><path d="M447.2 618.82C629.6 602.33 751.32 224.11 1063.89 223.41 1376.46 222.71 1519.24 411.66 1680.58 413.81" stroke="rgba(85, 85, 85, 0.65)" stroke-width="2"></path><path d="M334.76 604.96C503.42 598.43 624.41 330.34 948.93 324.57 1273.46 318.8 1405.63 185.45 1563.11 184.57" stroke="rgba(85, 85, 85, 0.65)" stroke-width="2"></path><path d="M789.11 601.53C904.55 590.19 942.44 369.6 1175.59 344.83 1408.74 320.06 1444.34 83.91 1562.07 70.43" stroke="rgba(85, 85, 85, 0.65)" stroke-width="2"></path></g><defs><mask id="SvgjsMask1001"><rect width="1440" height="560" fill="#ffffff"></rect></mask></defs></svg>