<svg xmlns="http://www.w3.org/2000/svg" version="1.1" xmlns:xlink="http://www.w3.org/1999/xlink" xmlns:svgjs="http://svgjs.dev/svgjs" width="2500" height="1000" preserveAspectRatio="none" viewBox="0 0 2500 1000"><g mask="url(&quot;#SvgjsMask1451&quot;)" fill="none"><use xlink:href="#SvgjsG1456" transform="translate(0, 0)" fill="rgba(85, 85, 85, 0.3)"></use><use xlink:href="#SvgjsG1456" transform="translate(0, 480)" fill="rgba(85, 85, 85, 0.3)"></use><use xlink:href="#SvgjsG1456" transform="translate(0, 960)" fill="rgba(85, 85, 85, 0.3)"></use><use xlink:href="#SvgjsG1456" transform="translate(480, 0)" fill="rgba(85, 85, 85, 0.3)"></use><use xlink:href="#SvgjsG1456" transform="translate(480, 480)" fill="rgba(85, 85, 85, 0.3)"></use><use xlink:href="#SvgjsG1456" transform="translate(480, 960)" fill="rgba(85, 85, 85, 0.3)"></use><use xlink:href="#SvgjsG1456" transform="translate(960, 0)" fill="rgba(85, 85, 85, 0.3)"></use><use xlink:href="#SvgjsG1456" transform="translate(960, 480)" fill="rgba(85, 85, 85, 0.3)"></use><use xlink:href="#SvgjsG1456" transform="translate(960, 960)" fill="rgba(85, 85, 85, 0.3)"></use><use xlink:href="#SvgjsG1456" transform="translate(1440, 0)" fill="rgba(85, 85, 85, 0.3)"></use><use xlink:href="#SvgjsG1456" transform="translate(1440, 480)" fill="rgba(85, 85, 85, 0.3)"></use><use xlink:href="#SvgjsG1456" transform="translate(1440, 960)" fill="rgba(85, 85, 85, 0.3)"></use><use xlink:href="#SvgjsG1456" transform="translate(1920, 0)" fill="rgba(85, 85, 85, 0.3)"></use><use xlink:href="#SvgjsG1456" transform="translate(1920, 480)" fill="rgba(85, 85, 85, 0.3)"></use><use xlink:href="#SvgjsG1456" transform="translate(1920, 960)" fill="rgba(85, 85, 85, 0.3)"></use><use xlink:href="#SvgjsG1456" transform="translate(2400, 0)" fill="rgba(85, 85, 85, 0.3)"></use><use xlink:href="#SvgjsG1456" transform="translate(2400, 480)" fill="rgba(85, 85, 85, 0.3)"></use><use xlink:href="#SvgjsG1456" transform="translate(2400, 960)" fill="rgba(85, 85, 85, 0.3)"></use></g><defs><mask id="SvgjsMask1451"><rect width="2500" height="1000" fill="#ffffff"></rect></mask><g id="SvgjsG1455"><path d="M10.52 2.94L1.11 3.9l1.66 0.85L-0.05 10.27 3.97 12.32 6.21 7.93l2.79 1.43L6.76 13.74l4.03 2.05L13.6 10.27 15.25 11.11 10.52 2.94z" fill-rule="evenodd"></path></g><g id="SvgjsG1453"><path d="M15.23 11.05l-0.56-1.74L7.95 5.89C7.89 4.58 7.16 3.35 5.92 2.72 4.08 1.78 1.82 2.53 0.86 4.38c-0.94 1.87-0.22 4.14 1.63 5.08 1.24 0.63 2.66 0.49 3.75-0.22l1.35 0.69 1.61-0.53 0.41 1.24 1.18-0.39 0.4 1.22 1.24-0.4 0.4 1.24 2.11-0.69c0.31-0.11 0.39-0.25 0.29-0.57zM2.29 6.22c-0.49-0.26-0.68-0.86-0.43-1.34 0.25-0.5 0.85-0.7 1.35-0.45 0.49 0.24 0.68 0.85 0.42 1.35-0.25 0.49-0.85 0.69-1.34 0.44z"></path></g><g id="SvgjsG1454"><path d="M8.17 8.36l-0.24 0.46c0.47 0.16 0.63-0.25 0.24-0.46l0 0z m-0.17-0.79L8.21 7.16c-0.35-0.11-0.53 0.24-0.21 0.41z"></path><path d="M8.98 6.19c-1.01-0.51-2.24-0.11-2.75 0.9-0.51 1.01-0.11 2.24 0.9 2.75 1.01 0.51 2.24 0.11 2.75-0.9 0.51-1.01 0.11-2.24-0.9-2.74l0-0.01z m-1.29 3.09l-0.16 0.33-0.46-0.23 0.17-0.33c-0.24-0.17-0.59-0.66-0.34-1.22l0.48 0.25c-0.04 0.15-0.08 0.34 0.1 0.51l0.27-0.54c-0.28-0.19-0.64-0.54-0.39-1.02 0.27-0.54 0.95-0.4 1.08-0.34l0.16-0.32 0.45 0.23-0.16 0.32c0.29 0.17 0.6 0.65 0.35 1.13l-0.47-0.24c0.06-0.15 0.02-0.34-0.11-0.43l-0.25 0.49c0.34 0.22 0.69 0.57 0.44 1.06-0.21 0.42-0.79 0.51-1.16 0.35l0 0z"></path><path d="M-0.91 7.87l14.25 7.26L16.94 8.07 2.69 0.8l-3.6 7.07z m2.03-0.66L3.35 2.83l11.57 5.9L12.68 13.11 1.12 7.21z"></path></g><g id="SvgjsG1452"><path d="M5.45-1.3l-6.66 13.06 11.48 5.85L16.93 4.54l-11.48-5.84z m-2.49 13.18L1.02 10.89 2 8.95 3.95 9.93l-0.99 1.95z m1.51-2.97L2.53 7.92 3.52 5.98 5.46 6.97l-0.99 1.94z m1.84 4.68L4.37 12.6 5.36 10.66l1.94 0.99-0.99 1.94z m1.52-2.97L5.88 9.63 6.87 7.69l1.95 0.99-0.99 1.94z m1.85 4.68L7.74 14.31l2.5-4.91 1.94 0.99-2.5 4.91z m3.54-6.78l-8.71-4.44L6.09 0.97l8.72 4.44L13.22 8.52z"></path></g><g id="SvgjsG1456"><use xlink:href="#SvgjsG1452" transform="translate(0, 0) scale(3)" fill="rgba(85, 85, 85, 0.3)"></use><use xlink:href="#SvgjsG1453" transform="translate(0, 48) scale(3)" fill="rgba(85, 85, 85, 0.3)"></use><use xlink:href="#SvgjsG1452" transform="translate(0, 96) scale(3)" fill="rgba(85, 85, 85, 0.3)"></use><use xlink:href="#SvgjsG1454" transform="translate(0, 144) scale(3)" fill="rgba(85, 85, 85, 0.3)"></use><use xlink:href="#SvgjsG1453" transform="translate(0, 192) scale(3)" fill="rgba(85, 85, 85, 0.3)"></use><use xlink:href="#SvgjsG1452" transform="translate(0, 240) scale(3)" fill="rgba(85, 85, 85, 0.3)"></use><use xlink:href="#SvgjsG1455" transform="translate(0, 288) scale(3)" fill="rgba(85, 85, 85, 0.3)"></use><use xlink:href="#SvgjsG1453" transform="translate(0, 336) scale(3)" fill="rgba(85, 85, 85, 0.3)"></use><use xlink:href="#SvgjsG1455" transform="translate(0, 384) scale(3)" fill="rgba(85, 85, 85, 0.3)"></use><use xlink:href="#SvgjsG1454" transform="translate(0, 432) scale(3)" fill="rgba(85, 85, 85, 0.3)"></use><use xlink:href="#SvgjsG1453" transform="translate(48, 0) scale(3)" fill="rgba(85, 85, 85, 0.3)"></use><use xlink:href="#SvgjsG1454" transform="translate(48, 48) scale(3)" fill="rgba(85, 85, 85, 0.3)"></use><use xlink:href="#SvgjsG1453" transform="translate(48, 96) scale(3)" fill="rgba(85, 85, 85, 0.3)"></use><use xlink:href="#SvgjsG1455" transform="translate(48, 144) scale(3)" fill="rgba(85, 85, 85, 0.3)"></use><use xlink:href="#SvgjsG1454" transform="translate(48, 192) scale(3)" fill="rgba(85, 85, 85, 0.3)"></use><use xlink:href="#SvgjsG1455" transform="translate(48, 240) scale(3)" fill="rgba(85, 85, 85, 0.3)"></use><use xlink:href="#SvgjsG1455" transform="translate(48, 288) scale(3)" fill="rgba(85, 85, 85, 0.3)"></use><use xlink:href="#SvgjsG1452" transform="translate(48, 336) scale(3)" fill="rgba(85, 85, 85, 0.3)"></use><use xlink:href="#SvgjsG1453" transform="translate(48, 384) scale(3)" fill="rgba(85, 85, 85, 0.3)"></use><use xlink:href="#SvgjsG1455" transform="translate(48, 432) scale(3)" fill="rgba(85, 85, 85, 0.3)"></use><use xlink:href="#SvgjsG1454" transform="translate(96, 0) scale(3)" fill="rgba(85, 85, 85, 0.3)"></use><use xlink:href="#SvgjsG1452" transform="translate(96, 48) scale(3)" fill="rgba(85, 85, 85, 0.3)"></use><use xlink:href="#SvgjsG1452" transform="translate(96, 96) scale(3)" fill="rgba(85, 85, 85, 0.3)"></use><use xlink:href="#SvgjsG1454" transform="translate(96, 144) scale(3)" fill="rgba(85, 85, 85, 0.3)"></use><use xlink:href="#SvgjsG1455" transform="translate(96, 192) scale(3)" fill="rgba(85, 85, 85, 0.3)"></use><use xlink:href="#SvgjsG1455" transform="translate(96, 240) scale(3)" fill="rgba(85, 85, 85, 0.3)"></use><use xlink:href="#SvgjsG1454" transform="translate(96, 288) scale(3)" fill="rgba(85, 85, 85, 0.3)"></use><use xlink:href="#SvgjsG1454" transform="translate(96, 336) scale(3)" fill="rgba(85, 85, 85, 0.3)"></use><use xlink:href="#SvgjsG1453" transform="translate(96, 384) scale(3)" fill="rgba(85, 85, 85, 0.3)"></use><use xlink:href="#SvgjsG1452" transform="translate(96, 432) scale(3)" fill="rgba(85, 85, 85, 0.3)"></use><use xlink:href="#SvgjsG1454" transform="translate(144, 0) scale(3)" fill="rgba(85, 85, 85, 0.3)"></use><use xlink:href="#SvgjsG1454" transform="translate(144, 48) scale(3)" fill="rgba(85, 85, 85, 0.3)"></use><use xlink:href="#SvgjsG1453" transform="translate(144, 96) scale(3)" fill="rgba(85, 85, 85, 0.3)"></use><use xlink:href="#SvgjsG1452" transform="translate(144, 144) scale(3)" fill="rgba(85, 85, 85, 0.3)"></use><use xlink:href="#SvgjsG1454" transform="translate(144, 192) scale(3)" fill="rgba(85, 85, 85, 0.3)"></use><use xlink:href="#SvgjsG1455" transform="translate(144, 240) scale(3)" fill="rgba(85, 85, 85, 0.3)"></use><use xlink:href="#SvgjsG1453" transform="translate(144, 288) scale(3)" fill="rgba(85, 85, 85, 0.3)"></use><use xlink:href="#SvgjsG1455" transform="translate(144, 336) scale(3)" fill="rgba(85, 85, 85, 0.3)"></use><use xlink:href="#SvgjsG1454" transform="translate(144, 384) scale(3)" fill="rgba(85, 85, 85, 0.3)"></use><use xlink:href="#SvgjsG1452" transform="translate(144, 432) scale(3)" fill="rgba(85, 85, 85, 0.3)"></use><use xlink:href="#SvgjsG1453" transform="translate(192, 0) scale(3)" fill="rgba(85, 85, 85, 0.3)"></use><use xlink:href="#SvgjsG1454" transform="translate(192, 48) scale(3)" fill="rgba(85, 85, 85, 0.3)"></use><use xlink:href="#SvgjsG1452" transform="translate(192, 96) scale(3)" fill="rgba(85, 85, 85, 0.3)"></use><use xlink:href="#SvgjsG1453" transform="translate(192, 144) scale(3)" fill="rgba(85, 85, 85, 0.3)"></use><use xlink:href="#SvgjsG1454" transform="translate(192, 192) scale(3)" fill="rgba(85, 85, 85, 0.3)"></use><use xlink:href="#SvgjsG1454" transform="translate(192, 240) scale(3)" fill="rgba(85, 85, 85, 0.3)"></use><use xlink:href="#SvgjsG1452" transform="translate(192, 288) scale(3)" fill="rgba(85, 85, 85, 0.3)"></use><use xlink:href="#SvgjsG1453" transform="translate(192, 336) scale(3)" fill="rgba(85, 85, 85, 0.3)"></use><use xlink:href="#SvgjsG1454" transform="translate(192, 384) scale(3)" fill="rgba(85, 85, 85, 0.3)"></use><use xlink:href="#SvgjsG1454" transform="translate(192, 432) scale(3)" fill="rgba(85, 85, 85, 0.3)"></use><use xlink:href="#SvgjsG1453" transform="translate(240, 0) scale(3)" fill="rgba(85, 85, 85, 0.3)"></use><use xlink:href="#SvgjsG1452" transform="translate(240, 48) scale(3)" fill="rgba(85, 85, 85, 0.3)"></use><use xlink:href="#SvgjsG1453" transform="translate(240, 96) scale(3)" fill="rgba(85, 85, 85, 0.3)"></use><use xlink:href="#SvgjsG1454" transform="translate(240, 144) scale(3)" fill="rgba(85, 85, 85, 0.3)"></use><use xlink:href="#SvgjsG1453" transform="translate(240, 192) scale(3)" fill="rgba(85, 85, 85, 0.3)"></use><use xlink:href="#SvgjsG1455" transform="translate(240, 240) scale(3)" fill="rgba(85, 85, 85, 0.3)"></use><use xlink:href="#SvgjsG1454" transform="translate(240, 288) scale(3)" fill="rgba(85, 85, 85, 0.3)"></use><use xlink:href="#SvgjsG1452" transform="translate(240, 336) scale(3)" fill="rgba(85, 85, 85, 0.3)"></use><use xlink:href="#SvgjsG1455" transform="translate(240, 384) scale(3)" fill="rgba(85, 85, 85, 0.3)"></use><use xlink:href="#SvgjsG1452" transform="translate(240, 432) scale(3)" fill="rgba(85, 85, 85, 0.3)"></use><use xlink:href="#SvgjsG1455" transform="translate(288, 0) scale(3)" fill="rgba(85, 85, 85, 0.3)"></use><use xlink:href="#SvgjsG1452" transform="translate(288, 48) scale(3)" fill="rgba(85, 85, 85, 0.3)"></use><use xlink:href="#SvgjsG1453" transform="translate(288, 96) scale(3)" fill="rgba(85, 85, 85, 0.3)"></use><use xlink:href="#SvgjsG1455" transform="translate(288, 144) scale(3)" fill="rgba(85, 85, 85, 0.3)"></use><use xlink:href="#SvgjsG1452" transform="translate(288, 192) scale(3)" fill="rgba(85, 85, 85, 0.3)"></use><use xlink:href="#SvgjsG1453" transform="translate(288, 240) scale(3)" fill="rgba(85, 85, 85, 0.3)"></use><use xlink:href="#SvgjsG1455" transform="translate(288, 288) scale(3)" fill="rgba(85, 85, 85, 0.3)"></use><use xlink:href="#SvgjsG1454" transform="translate(288, 336) scale(3)" fill="rgba(85, 85, 85, 0.3)"></use><use xlink:href="#SvgjsG1453" transform="translate(288, 384) scale(3)" fill="rgba(85, 85, 85, 0.3)"></use><use xlink:href="#SvgjsG1455" transform="translate(288, 432) scale(3)" fill="rgba(85, 85, 85, 0.3)"></use><use xlink:href="#SvgjsG1452" transform="translate(336, 0) scale(3)" fill="rgba(85, 85, 85, 0.3)"></use><use xlink:href="#SvgjsG1455" transform="translate(336, 48) scale(3)" fill="rgba(85, 85, 85, 0.3)"></use><use xlink:href="#SvgjsG1454" transform="translate(336, 96) scale(3)" fill="rgba(85, 85, 85, 0.3)"></use><use xlink:href="#SvgjsG1452" transform="translate(336, 144) scale(3)" fill="rgba(85, 85, 85, 0.3)"></use><use xlink:href="#SvgjsG1455" transform="translate(336, 192) scale(3)" fill="rgba(85, 85, 85, 0.3)"></use><use xlink:href="#SvgjsG1453" transform="translate(336, 240) scale(3)" fill="rgba(85, 85, 85, 0.3)"></use><use xlink:href="#SvgjsG1454" transform="translate(336, 288) scale(3)" fill="rgba(85, 85, 85, 0.3)"></use><use xlink:href="#SvgjsG1453" transform="translate(336, 336) scale(3)" fill="rgba(85, 85, 85, 0.3)"></use><use xlink:href="#SvgjsG1455" transform="translate(336, 384) scale(3)" fill="rgba(85, 85, 85, 0.3)"></use><use xlink:href="#SvgjsG1454" transform="translate(336, 432) scale(3)" fill="rgba(85, 85, 85, 0.3)"></use><use xlink:href="#SvgjsG1454" transform="translate(384, 0) scale(3)" fill="rgba(85, 85, 85, 0.3)"></use><use xlink:href="#SvgjsG1453" transform="translate(384, 48) scale(3)" fill="rgba(85, 85, 85, 0.3)"></use><use xlink:href="#SvgjsG1452" transform="translate(384, 96) scale(3)" fill="rgba(85, 85, 85, 0.3)"></use><use xlink:href="#SvgjsG1455" transform="translate(384, 144) scale(3)" fill="rgba(85, 85, 85, 0.3)"></use><use xlink:href="#SvgjsG1454" transform="translate(384, 192) scale(3)" fill="rgba(85, 85, 85, 0.3)"></use><use xlink:href="#SvgjsG1454" transform="translate(384, 240) scale(3)" fill="rgba(85, 85, 85, 0.3)"></use><use xlink:href="#SvgjsG1453" transform="translate(384, 288) scale(3)" fill="rgba(85, 85, 85, 0.3)"></use><use xlink:href="#SvgjsG1454" transform="translate(384, 336) scale(3)" fill="rgba(85, 85, 85, 0.3)"></use><use xlink:href="#SvgjsG1455" transform="translate(384, 384) scale(3)" fill="rgba(85, 85, 85, 0.3)"></use><use xlink:href="#SvgjsG1454" transform="translate(384, 432) scale(3)" fill="rgba(85, 85, 85, 0.3)"></use><use xlink:href="#SvgjsG1453" transform="translate(432, 0) scale(3)" fill="rgba(85, 85, 85, 0.3)"></use><use xlink:href="#SvgjsG1453" transform="translate(432, 48) scale(3)" fill="rgba(85, 85, 85, 0.3)"></use><use xlink:href="#SvgjsG1453" transform="translate(432, 96) scale(3)" fill="rgba(85, 85, 85, 0.3)"></use><use xlink:href="#SvgjsG1455" transform="translate(432, 144) scale(3)" fill="rgba(85, 85, 85, 0.3)"></use><use xlink:href="#SvgjsG1454" transform="translate(432, 192) scale(3)" fill="rgba(85, 85, 85, 0.3)"></use><use xlink:href="#SvgjsG1452" transform="translate(432, 240) scale(3)" fill="rgba(85, 85, 85, 0.3)"></use><use xlink:href="#SvgjsG1454" transform="translate(432, 288) scale(3)" fill="rgba(85, 85, 85, 0.3)"></use><use xlink:href="#SvgjsG1454" transform="translate(432, 336) scale(3)" fill="rgba(85, 85, 85, 0.3)"></use><use xlink:href="#SvgjsG1452" transform="translate(432, 384) scale(3)" fill="rgba(85, 85, 85, 0.3)"></use><use xlink:href="#SvgjsG1454" transform="translate(432, 432) scale(3)" fill="rgba(85, 85, 85, 0.3)"></use></g></defs></svg>